<?xml version="1.0" encoding="UTF-8" standalone="no"?>
<!-- Generator: Adobe Illustrator 21.1.0, SVG Export Plug-In . SVG Version: 6.00 Build 0)  -->

<svg
   xmlns:dc="http://purl.org/dc/elements/1.1/"
   xmlns:cc="http://creativecommons.org/ns#"
   xmlns:rdf="http://www.w3.org/1999/02/22-rdf-syntax-ns#"
   xmlns:svg="http://www.w3.org/2000/svg"
   xmlns="http://www.w3.org/2000/svg"
   xmlns:sodipodi="http://sodipodi.sourceforge.net/DTD/sodipodi-0.dtd"
   xmlns:inkscape="http://www.inkscape.org/namespaces/inkscape"
   version="1.1"
   id="Layer_1"
   x="0px"
   y="0px"
   viewBox="0 0 138 138"
   xml:space="preserve"
   sodipodi:docname="favicon.svg"
   width="138"
   height="138"
   inkscape:version="0.92.5 (2060ec1f9f, 2020-04-08)"><metadata
   id="metadata28"><rdf:RDF><cc:Work
       rdf:about=""><dc:format>image/svg+xml</dc:format><dc:type
         rdf:resource="http://purl.org/dc/dcmitype/StillImage" /><dc:title></dc:title></cc:Work></rdf:RDF></metadata><defs
   id="defs26" /><sodipodi:namedview
   pagecolor="#ffffff"
   bordercolor="#666666"
   borderopacity="1"
   objecttolerance="10"
   gridtolerance="10"
   guidetolerance="10"
   inkscape:pageopacity="0"
   inkscape:pageshadow="2"
   inkscape:window-width="776"
   inkscape:window-height="480"
   id="namedview24"
   showgrid="false"
   fit-margin-top="0"
   fit-margin-left="0"
   fit-margin-right="0"
   fit-margin-bottom="0"
   inkscape:zoom="1.5033982"
   inkscape:cx="107.87267"
   inkscape:cy="156.41323"
   inkscape:window-x="72"
   inkscape:window-y="27"
   inkscape:window-maximized="0"
   inkscape:current-layer="Layer_1" />
<style
   type="text/css"
   id="style2">
	.st0{fill:#FFFFFF;}
	.st1{fill:url(#SVGID_1_);}
	.st2{fill:#6527A4;}
</style>
<rect
   class="st0"
   width="135.45761"
   height="146.74577"
   id="rect4"
   x="150.50847"
   y="-155.49153"
   style="fill:#ffffff;stroke-width:0.31754225" />
<g
   id="g21"
   transform="translate(-153.83427,-152.08068)">
	<g
   id="g17">
		<linearGradient
   id="SVGID_1_"
   gradientUnits="userSpaceOnUse"
   x1="153.375"
   y1="222"
   x2="290.625"
   y2="222">
			<stop
   offset="0"
   style="stop-color:#9D52DA"
   id="stop6" />
			<stop
   offset="0.5595"
   style="stop-color:#C563B9"
   id="stop8" />
			<stop
   offset="1"
   style="stop-color:#A154D7"
   id="stop10" />
		</linearGradient>
		<path
   class="st1"
   d="m 182.9,211.3 25.4,25.4 0.6,-8.3 -2.7,-17 14.7,14.7 28.3,-29.3 3,-2.6 6.8,6.8 8.9,-2.3 7.5,-4.4 15.2,15.2 v -15 c 0,-22.5 -18.4,-41 -41,-41 h -55.3 c -22.6,0 -41,18.5 -41,41 v 55.3 c 0,22.5 18.4,41 41,41 h 39.1 L 194.9,252 Z"
   id="path13"
   inkscape:connector-curvature="0"
   style="fill:url(#SVGID_1_)" />
		<path
   class="st2"
   d="m 290.6,249.6 v -40.3 l -15.2,-15.2 -7.5,4.4 -8.9,2.3 -6.8,-6.8 -3,2.6 -28.3,29.3 -14.7,-14.7 2.7,17 -0.6,8.3 -25.4,-25.4 11.9,40.6 38.7,38.7 h 16.1 c 22.6,0.2 41,-18.2 41,-40.8 z"
   id="path15"
   inkscape:connector-curvature="0"
   style="fill:#6527a4" />
	</g>
	<path
   class="st0"
   d="m 269.8,194.2 h -0.4 c -3.8,0 -7.2,0.1 -9.5,3.9 l -26.5,43.1 c -0.5,0.8 -1,1.7 -1.6,2.6 -1,1.7 -2,3.1 -3,4.2 -1,-1.2 -2,-2.6 -3,-4.2 -0.6,-1 -1.1,-1.8 -1.6,-2.6 l -0.4,-0.6 0.4,-0.7 28,-45.7 h -5.6 -0.4 c -3.8,0 -7.2,0.1 -9.5,3.9 l -19.5,31.5 -10,-16.8 c -2.3,-3.8 -5.7,-3.9 -9.5,-3.9 h -0.4 -5.6 l 18.9,31.6 v 0 0 l -0.4,0.6 v 0 c -0.5,0.8 -1,1.7 -1.6,2.6 -1,1.7 -2,3.1 -3,4.2 0,0 0,0 0,0 0,0 0,0 0,0 -1,-1.2 -2,-2.6 -3,-4.2 -0.6,-1 -1.1,-1.8 -1.6,-2.6 l -17,-28.4 c -2.3,-3.8 -5.7,-3.9 -9.5,-3.9 h -0.4 -5.6 l 22,36.9 c 0.2,0.4 0.4,0.7 0.7,1.2 l 0.1,0.1 c 0.6,0.9 2,3 2,3 0,0 0,0.1 0.1,0.1 0,0 0,0 0,0 0,0 0,0 0,0.1 0.1,0.1 0.2,0.2 0.3,0.4 0,0 0,0.1 0.1,0.1 0.1,0.2 0.3,0.4 0.5,0.6 0.2,0.2 0.3,0.4 0.5,0.6 1.7,1.9 3.9,3.6 6.7,4.4 1.2,0.3 2.5,0.5 4,0.6 1.5,0 2.9,-0.2 4.1,-0.6 3.3,-1 5.7,-3.1 7.6,-5.4 v 0 c 0,0 0,0 0,0 0,0 0,0 0,0 v 0 c 0,0 0,0 0,0 v 0 0 c 0,0 0,0 0,0 0,0 0,0 0,0 0.1,0.1 0.2,0.2 0.3,0.4 0,0 0,0 0,0 0.2,0.2 0.3,0.4 0.5,0.6 1.7,1.9 3.9,3.6 6.7,4.4 1.2,0.3 2.5,0.5 4,0.6 1.5,0 2.9,-0.2 4.1,-0.6 3.6,-1.1 6.3,-3.6 8.1,-6.1 0,0 0,0 0,0 0.9,-1.1 1.6,-2.2 2.1,-3.2 v 0 l 0.1,-0.1 c 0.3,-0.4 0.5,-0.8 0.7,-1.2 l 31.5,-51.6 h -5.5 z M 217,250.7 c -0.2,0 -0.2,0 0,0 z"
   id="path19"
   inkscape:connector-curvature="0"
   style="fill:#ffffff" />
</g>
</svg>