<?xml version="1.0" encoding="UTF-8" standalone="no"?>
<svg
   xmlns:dc="http://purl.org/dc/elements/1.1/"
   xmlns:cc="http://creativecommons.org/ns#"
   xmlns:rdf="http://www.w3.org/1999/02/22-rdf-syntax-ns#"
   xmlns:svg="http://www.w3.org/2000/svg"
   xmlns="http://www.w3.org/2000/svg"
   xml:space="preserve"
   style="enable-background:new 0 0 444 444;"
   viewBox="0 0 444 444"
   y="0px"
   x="0px"
   id="Layer_1"
   version="1.1"><metadata
   id="metadata198"><rdf:RDF><cc:Work
       rdf:about=""><dc:format>image/svg+xml</dc:format><dc:type
         rdf:resource="http://purl.org/dc/dcmitype/StillImage" /><dc:title></dc:title></cc:Work></rdf:RDF></metadata><defs
   id="defs196" />
<style
   id="style2"
   type="text/css">
	.st0{display:none;fill:#FFFFFF;}
	.st1{fill:#FFFFFF;}
	.st2{fill:#B80000;}
	.st3{fill:#72286F;}
	.st4{fill:#005B00;}
	.st5{fill:#66005C;}
	.st6{fill:#AB004F;}
	.st7{fill:url(#SVGID_1_);}
	.st8{fill:url(#SVGID_2_);}
	.st9{fill:url(#SVGID_3_);}
	.st10{fill:#7136AE;}
	.st11{display:none;}
	.st12{display:inline;fill:#010101;}
	.st13{display:inline;}
	.st14{fill:url(#SVGID_4_);}
	.st15{fill:url(#SVGID_5_);}
	.st16{fill:#FBBA00;}
	.st17{fill:url(#SVGID_6_);}
	.st18{fill:#712A70;}
	.st19{fill:#531E54;}
	.st20{display:inline;fill:#FFFFFF;}
	.st21{fill:url(#SVGID_7_);}
	.st22{fill:#6527A4;}
</style>
<rect
   id="rect4"
   height="444"
   width="444"
   class="st0"
   y="1.1"
   x="523.1" />
<rect
   id="rect6"
   height="444"
   width="444"
   class="st1" />
<rect
   id="rect8"
   height="444"
   width="444"
   class="st0"
   y="1.1"
   x="1030" />
<rect
   id="rect10"
   height="444"
   width="444"
   class="st0"
   y="1.1"
   x="1537" />
<g
   style="opacity:0.98;fill:#ffffff"
   id="g87">
	<g
   style="fill:#ffffff"
   id="g32">
		<path
   style="fill:#ffffff"
   id="path12"
   d="M123.8,246.9c-0.2-0.3-0.5-0.6-0.7-0.8C123.4,246.3,123.6,246.6,123.8,246.9"
   class="st2" />
		<path
   style="fill:#ffffff"
   id="path14"
   d="M126.2,246.7C126.2,246.7,126.2,246.7,126.2,246.7c5.5,1.1,8.9-0.4,12-4c-1.3-1.5-2.5-3.3-3.8-5.4    c-0.7-1.2-1.4-2.3-2.1-3.4l-21.7-36.3c-2.9-4.9-7.3-5-12.1-5h-0.5h-7.2l28.1,47.1c0.3,0.5,0.6,1,0.9,1.5l0.1,0.1    c0.7,1.2,1.6,2.5,2.6,3.9c0.9,0.7,2.6,1.2,3.4,1.4C126,246.6,126.1,246.6,126.2,246.7"
   class="st3" />
		<path
   style="fill:#ffffff"
   id="path16"
   d="M122.5,245.2c0,0,0.1,0.1,0.1,0.2C122.6,245.3,122.5,245.2,122.5,245.2C122.5,245.2,122.5,245.2,122.5,245.2"
   class="st4" />
		<path
   style="fill:#ffffff"
   id="path18"
   d="M197.8,173.8h-7.2h-0.5c-4.8,0-9.2,0.1-12.1,5L153.1,219l8.4,14L197.8,173.8z"
   class="st3" />
		<path
   style="fill:#ffffff"
   id="path20"
   d="M149.8,246.7c0.7-0.1,1.9-0.4,2.9-0.8c-0.2-0.2-0.3-0.4-0.4-0.6c-0.1-0.1-0.1-0.2-0.1-0.2c0,0,0,0,0,0    c-1-1.4-1.9-2.7-2.6-3.9l-0.1-0.1c-0.3-0.5-0.6-1-0.9-1.5l-4-6.7l-0.5,0.8h0c-0.6,1-1.3,2.2-2.1,3.4c-1.3,2.1-2.5,3.9-3.8,5.4    C141.3,246.1,144.6,247.7,149.8,246.7"
   class="st3" />
		<path
   style="fill:#ffffff"
   id="path22"
   d="M152.7,245.9c-1,0.4-2.2,0.7-2.9,0.8c-5.2,1-8.5-0.6-11.6-4.1c-3.1,3.6-6.5,5.2-12,4c0,0,0,0,0,0    c-0.1,0-0.2,0-0.3-0.1c-0.8-0.2-2.5-0.7-3.4-1.4c0,0.1,0.1,0.1,0.1,0.2c0.2,0.2,0.4,0.5,0.6,0.7c0.2,0.2,0.4,0.5,0.7,0.8    c0.2,0.2,0.4,0.5,0.6,0.7c2.2,2.4,5,4.6,8.6,5.6c1.5,0.4,3.2,0.7,5.2,0.7c2,0,3.7-0.3,5.2-0.7c4.2-1.3,7.3-4,9.7-6.9    c-0.1-0.1-0.1-0.2-0.2-0.3C152.8,246,152.8,246,152.7,245.9"
   class="st5" />
		<path
   style="fill:#ffffff"
   id="path24"
   d="M123.2,246.1c-0.2-0.2-0.4-0.5-0.6-0.7C122.7,245.5,122.9,245.8,123.2,246.1"
   class="st6" />
		<path
   style="fill:#ffffff"
   id="path26"
   d="M124.5,247.6c-0.2-0.2-0.4-0.5-0.6-0.7C124,247.1,124.2,247.3,124.5,247.6"
   class="st6" />
		<path
   style="fill:#ffffff"
   id="path28"
   d="M153,246.4c0.1,0.2,0.3,0.3,0.4,0.5C153.3,246.7,153.2,246.5,153,246.4C153.1,246.4,153,246.4,153,246.4"
   class="st2" />
		<path
   style="fill:#ffffff"
   id="path30"
   d="M152.8,246.1c0.1,0.1,0.1,0.2,0.2,0.3c0,0,0,0,0,0C153,246.3,152.9,246.2,152.8,246.1"
   class="st2" />
	</g>
	<linearGradient
   y2="212.7817"
   x2="153.1339"
   y1="212.7817"
   x1="120.4868"
   gradientUnits="userSpaceOnUse"
   id="SVGID_1_">
		<stop
   id="stop34"
   style="stop-color:#9D52DA"
   offset="0" />
		<stop
   id="stop36"
   style="stop-color:#C563B9"
   offset="0.5595" />
		<stop
   id="stop38"
   style="stop-color:#A154D7"
   offset="1" />
	</linearGradient>
	<path
   style="fill:#ffffff"
   id="path41"
   d="M127.7,192.6h-7.2l24.1,40.4l8.5-14l-12.8-21.5c-2.9-4.9-7.3-5-12.1-5H127.7z"
   class="st7" />
	<linearGradient
   y2="240.0425"
   x2="167.8694"
   y1="240.0425"
   x1="153.4147"
   gradientUnits="userSpaceOnUse"
   id="SVGID_2_">
		<stop
   id="stop43"
   style="stop-color:#9D52DA"
   offset="0" />
		<stop
   id="stop45"
   style="stop-color:#C563B9"
   offset="0.5595" />
		<stop
   id="stop47"
   style="stop-color:#A154D7"
   offset="1" />
	</linearGradient>
	<path
   style="fill:#ffffff"
   id="path50"
   d="M157.5,239.7c-0.3,0.5-0.6,1-0.9,1.5l-0.1,0.1c-0.8,1.2-1.7,2.7-2.7,4.1c-0.1,0.2-0.3,0.3-0.4,0.5   c0.8,0.3,1.6,0.6,2.1,0.7c0.1,0,0.2,0,0.3,0.1c0,0,0,0,0,0c5.5,1.1,8.9-0.4,12-4c-1.3-1.5-2.5-3.3-3.8-5.4   c-0.7-1.2-1.4-2.3-2.1-3.4l-0.5-0.8L157.5,239.7z"
   class="st8" />
	<path
   style="fill:#ffffff"
   id="path52"
   d="M152.1,245.2c0,0,0.1,0.1,0.1,0.2C152.2,245.3,152.2,245.2,152.1,245.2C152.1,245.2,152.1,245.2,152.1,245.2"
   class="st4" />
	<linearGradient
   y2="210.3907"
   x2="227.4669"
   y1="210.3907"
   x1="167.8694"
   gradientUnits="userSpaceOnUse"
   id="SVGID_3_">
		<stop
   id="stop54"
   style="stop-color:#9D52DA"
   offset="0" />
		<stop
   id="stop56"
   style="stop-color:#C563B9"
   offset="0.5595" />
		<stop
   id="stop58"
   style="stop-color:#A154D7"
   offset="1" />
	</linearGradient>
	<path
   style="fill:#ffffff"
   id="path61"
   d="M220.3,173.8h-0.5c-4.8,0-9.2,0.1-12.1,5l-33.9,55.1c-0.6,1-1.3,2.2-2.1,3.4c-1.3,2.1-2.5,3.9-3.8,5.4   c3,3.5,6.4,5.1,11.6,4.1c1-0.2,3.1-0.7,4-1.3c1.1-1.4,2-2.9,2.7-4.1h0l0.1-0.1c0.3-0.5,0.6-1,0.9-1.5l40.3-65.9H220.3z"
   class="st9" />
	<g
   style="fill:#ffffff"
   id="g73">
		<path
   style="fill:#ffffff"
   id="path63"
   d="M167.9,242.6c-3.1,3.6-6.5,5.2-12,4c0,0,0,0,0,0c-0.1,0-0.2,0-0.3-0.1c-0.5-0.1-1.3-0.3-2.1-0.7    c-0.1,0.1-0.2,0.3-0.4,0.4c0.1,0.2,0.3,0.3,0.4,0.5c0.2,0.2,0.4,0.5,0.6,0.7c2.2,2.4,5,4.6,8.6,5.6c1.5,0.4,3.2,0.7,5.2,0.7    c2,0,3.7-0.3,5.2-0.7c4.7-1.4,8-4.6,10.4-7.8c-1,0.7-3,1.1-4,1.3C174.2,247.7,170.9,246.1,167.9,242.6"
   class="st10" />
		<path
   style="fill:#ffffff"
   id="path65"
   d="M153.1,219l-8.5,14l4,6.7c0.3,0.5,0.6,1,0.9,1.5l0.1,0.1c0.7,1.2,1.6,2.5,2.6,3.9c0,0,0,0,0,0    c0,0.1,0.1,0.1,0.1,0.2c0.1,0.2,0.3,0.4,0.5,0.6c0,0,0,0,0,0c0,0,0.1,0.1,0.1,0.1c0.1,0.1,0.1,0.2,0.2,0.3    c0.1-0.1,0.2-0.3,0.4-0.4l0.4-0.5c0,0,0,0,0,0c1.1-1.4,2-2.9,2.7-4.1l0.1-0.1c0.3-0.5,0.6-1,0.9-1.5l4-6.6L153.1,219z"
   class="st5" />
		<path
   style="fill:#ffffff"
   id="path67"
   d="M154.1,247.6c-0.2-0.2-0.4-0.5-0.6-0.7C153.7,247.1,153.9,247.3,154.1,247.6"
   class="st6" />
		<path
   style="fill:#ffffff"
   id="path69"
   d="M152.3,245.4c0.1,0.1,0.3,0.3,0.5,0.6h0C152.6,245.8,152.4,245.6,152.3,245.4"
   class="st6" />
		<path
   style="fill:#ffffff"
   id="path71"
   d="M152.7,245.9c0,0,0.1,0.1,0.1,0.1C152.8,246,152.8,246,152.7,245.9L152.7,245.9z"
   class="st6" />
	</g>
	<g
   style="fill:#ffffff"
   id="g85">
		<g
   style="fill:#ffffff"
   id="g83">
			<path
   style="fill:#ffffff"
   id="path75"
   d="M227,194c1.1,1.1,1.6,2.4,1.6,3.8v0.7c0,1.8-0.8,3.2-2.4,4.2c-1.7,1-3.3,1-4.9,0c-1.6-1-2.4-2.4-2.4-4.2     v-0.7c0-0.6,0.1-1.1,0.4-1.6c0.6-1.9,1.9-3,4-3.3C224.7,192.6,225.9,193,227,194z M227.1,211.7c1,1,1.4,2.1,1.4,3.4v33.3     c0,1.8-0.8,3.2-2.4,4.2c-1.7,1-3.3,1-4.9,0c-1.6-1-2.4-2.4-2.4-4.2v-33.3c0-0.7,0.2-1.4,0.5-2c0.7-1.9,2.1-2.9,4.2-2.9     C225.1,210.3,226.3,210.7,227.1,211.7z"
   class="st3" />
			<path
   style="fill:#ffffff"
   id="path77"
   d="M239.4,211.2h25c1.9,0,3.3,0.9,4.2,2.7c1,1.7,0.8,3.4-0.4,5.1l-19,24.8h15.2c1.8,0,3.2,0.8,4.2,2.4     c1,1.6,1,3.2,0,4.9c-1,1.6-2.4,2.4-4.2,2.4h-25c-1.9,0-3.4-0.9-4.3-2.7c-0.8-1.8-0.7-3.5,0.5-5.1l19-24.8h-15.2     c-1.8,0-3.2-0.8-4.2-2.4c-1-1.7-1-3.3,0-4.9C236.2,212,237.6,211.2,239.4,211.2z"
   class="st3" />
			<path
   style="fill:#ffffff"
   id="path79"
   d="M311.2,215.2v35.5c0,7.2-1.6,12.4-4.7,15.4c-2.5,2.7-6.7,4-12.5,4c-5.6,0.7-10.6-0.3-15.2-3.1     c-1.6-1-2.4-2.4-2.4-4.2c0-1.9,0.8-3.3,2.5-4.2c1.6-1,3.1-0.9,4.7,0.2c1.9,1.1,5.2,1.6,9.8,1.6h0.4c3.1,0,5.1-0.4,6-1.3     c1.1-1,1.6-3.5,1.6-7.6c-3.4,1.7-7,2.2-10.9,1.4c-7.7-2.1-12.3-7.6-13.8-16.7c-0.2-1.4-0.4-3-0.4-4.5v-16.7c0-2.2,1-3.7,2.9-4.5     c0.5-0.2,1.1-0.4,1.8-0.4c1.5,0,2.7,0.5,3.6,1.4c1,1,1.5,2.1,1.5,3.4v16.7c0,5.2,1.3,8.8,4,10.7c1.2,0.8,2.4,1.3,3.6,1.3     c1.6-0.1,2.9-0.5,4-1.3c1.7-0.7,2.8-1.7,3.3-2.9c0.2-1,0.4-2.2,0.4-3.6v-20.8c0-1.8,0.8-3.3,2.5-4.3c1.7-0.8,3.3-0.8,4.7,0     C310.3,211.9,311.2,213.3,311.2,215.2z"
   class="st3" />
			<path
   style="fill:#ffffff"
   id="path81"
   d="M323.1,210.3c1.3,0,2.5,0.5,3.6,1.4c1,1,1.5,2.2,1.5,3.6V236c0,1.7,0.3,3.1,0.9,4.2c0.8,1.6,1.9,2.6,3.1,3.1     c1.1,0.4,2.3,0.5,3.6,0.5c3,0,5.1-0.9,6.2-2.7l0.5-0.9c0.6-1.3,0.9-2.7,0.9-4.2v-20.6c0-1.9,0.8-3.4,2.5-4.3c1.7-1,3.3-1,4.7,0     c1.7,1,2.5,2.4,2.5,4.3V236c-0.7,8.3-4.5,13.8-11.2,16.3c-1.9,0.7-4,1.1-6.2,1.1c-5.8,0-10.3-2.2-13.6-6.5     c-0.6-0.7-1.1-1.5-1.6-2.4c-1.4-2.8-2.2-5.6-2.2-8.5v-20.6c0-2.2,0.9-3.7,2.7-4.5C321.7,210.4,322.4,210.3,323.1,210.3z"
   class="st3" />
		</g>
	</g>
</g>
<g
   id="g164"
   class="st11">
	<path
   id="path89"
   d="M772.7,291.7h-55.3c-22.5,0-41-18.5-41-41v-55.3c0-22.6,18.5-41,41-41h55.3c22.5,0,41,18.4,41,41v55.3   C813.7,273.3,795.2,291.7,772.7,291.7z"
   class="st12" />
	<g
   id="g162"
   class="st13">
		<g
   id="g111">
			<path
   id="path91"
   d="M716.5,252.5c-0.2-0.2-0.4-0.4-0.5-0.6C716.1,252.1,716.3,252.3,716.5,252.5"
   class="st2" />
			<path
   id="path93"
   d="M718.3,252.3C718.3,252.3,718.3,252.3,718.3,252.3c4.3,0.9,7-0.3,9.4-3.2c-1-1.2-2-2.6-3-4.2     c-0.6-1-1.1-1.8-1.6-2.6l-17-28.4c-2.3-3.8-5.7-3.9-9.5-3.9h-0.4h-5.6l22,36.9c0.2,0.4,0.4,0.7,0.7,1.2l0.1,0.1     c0.6,0.9,1.2,2,2,3c0.7,0.6,2.1,1,2.7,1.1C718.2,252.3,718.2,252.3,718.3,252.3"
   class="st3" />
			<path
   id="path95"
   d="M715.4,251.2c0,0,0,0.1,0.1,0.2C715.5,251.3,715.5,251.2,715.4,251.2C715.4,251.2,715.4,251.2,715.4,251.2"
   class="st4" />
			<path
   id="path97"
   d="M774.4,195.3h-5.6h-0.4c-3.8,0-7.2,0.1-9.5,3.9l-19.5,31.5l6.6,11L774.4,195.3z"
   class="st3" />
			<path
   id="path99"
   d="M736.8,252.4c0.6-0.1,1.5-0.3,2.3-0.6c-0.1-0.2-0.3-0.3-0.4-0.4c-0.1-0.1-0.1-0.2-0.1-0.2c0,0,0,0,0,0     c-0.8-1.1-1.5-2.1-2-3l-0.1-0.1c-0.3-0.4-0.5-0.8-0.7-1.2l-3.1-5.2l-0.4,0.6h0c-0.5,0.8-1,1.7-1.6,2.6c-1,1.7-2,3.1-3,4.2     C730.1,251.9,732.7,253.1,736.8,252.4"
   class="st3" />
			<path
   id="path101"
   d="M739.1,251.8c-0.8,0.3-1.7,0.5-2.3,0.6c-4.1,0.8-6.7-0.5-9.1-3.2c-2.4,2.8-5.1,4-9.4,3.2c0,0,0,0,0,0     c-0.1,0-0.1,0-0.2-0.1c-0.6-0.1-2-0.5-2.7-1.1c0,0,0.1,0.1,0.1,0.1c0.1,0.2,0.3,0.4,0.4,0.5c0.1,0.2,0.3,0.4,0.5,0.6     c0.2,0.2,0.3,0.4,0.5,0.6c1.7,1.9,3.9,3.6,6.7,4.4c1.2,0.3,2.5,0.5,4,0.6c1.5,0,2.9-0.2,4.1-0.6c3.3-1,5.7-3.1,7.6-5.4     c-0.1-0.1-0.1-0.1-0.2-0.2C739.1,251.8,739.1,251.8,739.1,251.8"
   class="st5" />
			<path
   id="path103"
   d="M716,251.9c-0.1-0.2-0.3-0.4-0.4-0.5C715.6,251.4,715.8,251.6,716,251.9"
   class="st6" />
			<path
   id="path105"
   d="M717,253c-0.2-0.2-0.3-0.4-0.5-0.6C716.6,252.7,716.8,252.9,717,253"
   class="st6" />
			<path
   id="path107"
   d="M739.3,252.1c0.1,0.1,0.2,0.3,0.3,0.4C739.6,252.3,739.4,252.2,739.3,252.1     C739.3,252.1,739.3,252.1,739.3,252.1"
   class="st2" />
			<path
   id="path109"
   d="M739.2,251.9c0.1,0.1,0.1,0.1,0.2,0.2c0,0,0,0,0,0C739.3,252,739.2,251.9,739.2,251.9"
   class="st2" />
		</g>
		<linearGradient
   y2="225.8118"
   x2="739.4094"
   y1="225.8118"
   x1="713.8654"
   gradientUnits="userSpaceOnUse"
   id="SVGID_4_">
			<stop
   id="stop113"
   style="stop-color:#9D52DA"
   offset="0" />
			<stop
   id="stop115"
   style="stop-color:#C563B9"
   offset="0.5595" />
			<stop
   id="stop117"
   style="stop-color:#A154D7"
   offset="1" />
		</linearGradient>
		<path
   id="path120"
   d="M719.5,210h-5.6l18.9,31.6l6.7-10.9l-10-16.8c-2.3-3.8-5.7-3.9-9.5-3.9H719.5z"
   class="st14" />
		<linearGradient
   y2="247.1414"
   x2="750.9389"
   y1="247.1414"
   x1="739.6291"
   gradientUnits="userSpaceOnUse"
   id="SVGID_5_">
			<stop
   id="stop122"
   style="stop-color:#9D52DA"
   offset="0" />
			<stop
   id="stop124"
   style="stop-color:#C563B9"
   offset="0.5595" />
			<stop
   id="stop126"
   style="stop-color:#A154D7"
   offset="1" />
		</linearGradient>
		<path
   id="path129"
   d="M742.8,246.9c-0.2,0.4-0.4,0.7-0.7,1.2l-0.1,0.1c-0.6,1-1.3,2.1-2.1,3.2c-0.1,0.1-0.2,0.3-0.3,0.4    c0.6,0.3,1.3,0.4,1.7,0.5c0.1,0,0.1,0,0.2,0.1c0,0,0,0,0,0c4.3,0.9,7-0.3,9.4-3.2c-1-1.2-2-2.6-3-4.2c-0.6-1-1.1-1.8-1.6-2.6    l-0.4-0.6L742.8,246.9z"
   class="st15" />
		<g
   id="g137">
			<path
   id="path131"
   d="M736.5,248L736.5,248c0.6,1,1.3,2.1,2.1,3.1c0.2,0.2,0.5,0.3,0.8,0.5c0.2-0.1,0.4-0.2,0.5-0.3     c0.9-1.1,1.6-2.2,2.1-3.2l0.1-0.1c0.3-0.4,0.5-0.8,0.7-1.2l3.2-5.2l-6.6-11l-6.7,10.9l3.1,5.2C736.1,247.2,736.3,247.6,736.5,248     "
   class="st5" />
			<path
   id="path133"
   d="M739.4,251.6c0.1,0,0.2,0.1,0.2,0.1c0.1-0.1,0.2-0.3,0.3-0.4C739.8,251.4,739.6,251.5,739.4,251.6"
   class="st16" />
			<path
   id="path135"
   d="M738.6,251.2c0,0,0,0.1,0.1,0.2C738.7,251.3,738.7,251.2,738.6,251.2C738.6,251.2,738.6,251.2,738.6,251.2"
   class="st4" />
		</g>
		<linearGradient
   y2="223.941"
   x2="797.5696"
   y1="223.941"
   x1="750.9389"
   gradientUnits="userSpaceOnUse"
   id="SVGID_6_">
			<stop
   id="stop139"
   style="stop-color:#9D52DA"
   offset="0" />
			<stop
   id="stop141"
   style="stop-color:#C563B9"
   offset="0.5595" />
			<stop
   id="stop143"
   style="stop-color:#A154D7"
   offset="1" />
		</linearGradient>
		<path
   id="path146"
   d="M791.9,195.3h-0.4c-3.8,0-7.2,0.1-9.5,3.9l-26.5,43.1c-0.5,0.8-1,1.7-1.6,2.6c-1,1.7-2,3.1-3,4.2    c2.4,2.7,5,4,9.1,3.2c0.8-0.2,2.4-0.5,3.1-1c0.9-1.1,1.6-2.2,2.1-3.2h0l0.1-0.1c0.3-0.4,0.5-0.8,0.7-1.2l31.5-51.6H791.9z"
   class="st17" />
		<g
   id="g160">
			<path
   id="path148"
   d="M750.9,249.2c-2.4,2.8-5.1,4-9.4,3.2c0,0,0,0,0,0c-0.1,0-0.1,0-0.2-0.1c-0.4-0.1-1-0.3-1.7-0.5     c-0.1,0.1-0.2,0.2-0.3,0.4c0.1,0.1,0.2,0.3,0.3,0.4c0.2,0.2,0.3,0.4,0.5,0.6c1.7,1.9,3.9,3.6,6.7,4.4c1.2,0.3,2.5,0.5,4,0.6     c1.5,0,2.9-0.2,4.1-0.6c3.6-1.1,6.3-3.6,8.1-6.1c-0.8,0.5-2.3,0.9-3.1,1C755.9,253.1,753.3,251.9,750.9,249.2"
   class="st10" />
			<path
   id="path150"
   d="M739.4,251.6c-0.3-0.1-0.6-0.3-0.8-0.5c0,0,0.1,0.1,0.1,0.1c0.1,0.1,0.2,0.3,0.4,0.4     C739.2,251.7,739.3,251.7,739.4,251.6"
   class="st6" />
			<path
   id="path152"
   d="M739.1,251.8c0,0,0.1,0.1,0.1,0.1c0.1,0.1,0.1,0.1,0.2,0.2c0.1-0.1,0.2-0.2,0.3-0.4c-0.1,0-0.2-0.1-0.2-0.1     C739.3,251.7,739.2,251.7,739.1,251.8"
   class="st6" />
			<path
   id="path154"
   d="M740.2,253c-0.2-0.2-0.3-0.4-0.5-0.6C739.8,252.7,740,252.8,740.2,253"
   class="st6" />
			<path
   id="path156"
   d="M738.7,251.3c0.1,0.1,0.2,0.3,0.4,0.4h0C739,251.6,738.8,251.5,738.7,251.3"
   class="st6" />
			<path
   id="path158"
   d="M739.1,251.8c0,0,0.1,0.1,0.1,0.1C739.1,251.8,739.1,251.8,739.1,251.8L739.1,251.8z"
   class="st6" />
		</g>
	</g>
</g>
<g
   id="g174"
   class="st11">
	<g
   id="g170"
   class="st13">
		<path
   id="path166"
   d="M1213,212.4l25.4,25.4l0.6-8.3l-2.7-17l14.7,14.7l28.3-29.3l3-2.6l6.8,6.8l8.9-2.3l7.5-4.4l15.2,15.2v-15    c0-22.5-18.4-41-41-41h-55.3c-22.6,0-41,18.5-41,41v55.3c0,22.5,18.4,41,41,41h39.1l-38.7-38.7L1213,212.4z"
   class="st18" />
		<path
   id="path168"
   d="M1320.7,250.7v-40.3l-15.2-15.2l-7.5,4.4l-8.9,2.3l-6.8-6.8l-3,2.6l-28.3,29.3l-14.7-14.7l2.7,17l-0.6,8.3    l-25.4-25.4l11.9,40.6l38.7,38.7h16.1C1302.2,291.7,1320.7,273.3,1320.7,250.7z"
   class="st19" />
	</g>
	<path
   id="path172"
   d="M1299.8,195.3h-0.4c-3.8,0-7.2,0.1-9.5,3.9l-26.5,43.1c-0.5,0.8-1,1.7-1.6,2.6c-1,1.7-2,3.1-3,4.2   c-1-1.2-2-2.6-3-4.2c-0.6-1-1.1-1.8-1.6-2.6l-0.4-0.6l0.4-0.7l28-45.7h-5.6h-0.4c-3.8,0-7.2,0.1-9.5,3.9l-19.5,31.5l-10-16.8   c-2.3-3.8-5.7-3.9-9.5-3.9h-0.4h-5.6l18.9,31.6l0,0l0,0l-0.4,0.6h0c-0.5,0.8-1,1.7-1.6,2.6c-1,1.7-2,3.1-3,4.2c0,0,0,0,0,0   c0,0,0,0,0,0c-1-1.2-2-2.6-3-4.2c-0.6-1-1.1-1.8-1.6-2.6l-17-28.4c-2.3-3.8-5.7-3.9-9.5-3.9h-0.4h-5.6l22,36.9   c0.2,0.4,0.4,0.7,0.7,1.2l0.1,0.1c0.6,0.9,2,3,2,3c0,0,0,0.1,0.1,0.1c0,0,0,0,0,0c0,0,0,0,0,0.1c0.1,0.1,0.2,0.2,0.3,0.4   c0,0,0,0.1,0.1,0.1c0.1,0.2,0.3,0.4,0.5,0.6c0.2,0.2,0.3,0.4,0.5,0.6c1.7,1.9,3.9,3.6,6.7,4.4c1.2,0.3,2.5,0.5,4,0.6   c1.5,0,2.9-0.2,4.1-0.6c3.3-1,5.7-3.1,7.6-5.4v0c0,0,0,0,0,0c0,0,0,0,0,0v0c0,0,0,0,0,0l0,0l0,0c0,0,0,0,0,0c0,0,0,0,0,0   c0.1,0.1,0.2,0.2,0.3,0.4c0,0,0,0,0,0c0.2,0.2,0.3,0.4,0.5,0.6c1.7,1.9,3.9,3.6,6.7,4.4c1.2,0.3,2.5,0.5,4,0.6   c1.5,0,2.9-0.2,4.1-0.6c3.6-1.1,6.3-3.6,8.1-6.1c0,0,0,0,0,0c0.9-1.1,1.6-2.2,2.1-3.2h0l0.1-0.1c0.3-0.4,0.5-0.8,0.7-1.2l31.5-51.6   H1299.8z M1247,251.8C1246.8,251.8,1246.8,251.8,1247,251.8L1247,251.8L1247,251.8L1247,251.8z"
   class="st20" />
</g>
<g
   id="g191"
   class="st11">
	<g
   id="g187"
   class="st13">
		<linearGradient
   y2="223.0844"
   x2="1827.6439"
   y1="223.0844"
   x1="1690.3939"
   gradientUnits="userSpaceOnUse"
   id="SVGID_7_">
			<stop
   id="stop176"
   style="stop-color:#9D52DA"
   offset="0" />
			<stop
   id="stop178"
   style="stop-color:#C563B9"
   offset="0.5595" />
			<stop
   id="stop180"
   style="stop-color:#A154D7"
   offset="1" />
		</linearGradient>
		<path
   id="path183"
   d="M1720,212.4l25.4,25.4l0.6-8.3l-2.7-17l14.7,14.7l28.3-29.3l3-2.6l6.8,6.8l8.9-2.3l7.5-4.4l15.2,15.2v-15    c0-22.5-18.4-41-41-41h-55.3c-22.6,0-41,18.5-41,41v55.3c0,22.5,18.4,41,41,41h39.1l-38.7-38.7L1720,212.4z"
   class="st21" />
		<path
   id="path185"
   d="M1827.6,250.7v-40.3l-15.2-15.2l-7.5,4.4l-8.9,2.3l-6.8-6.8l-3,2.6l-28.3,29.3l-14.7-14.7l2.7,17l-0.6,8.3    l-25.4-25.4l11.9,40.6l38.7,38.7h16.1C1809.2,291.7,1827.6,273.3,1827.6,250.7z"
   class="st22" />
	</g>
	<path
   id="path189"
   d="M1806.8,195.3h-0.4c-3.8,0-7.2,0.1-9.5,3.9l-26.5,43.1c-0.5,0.8-1,1.7-1.6,2.6c-1,1.7-2,3.1-3,4.2   c-1-1.2-2-2.6-3-4.2c-0.6-1-1.1-1.8-1.6-2.6l-0.4-0.6l0.4-0.7l28-45.7h-5.6h-0.4c-3.8,0-7.2,0.1-9.5,3.9l-19.5,31.5l-10-16.8   c-2.3-3.8-5.7-3.9-9.5-3.9h-0.4h-5.6l18.9,31.6l0,0l0,0l-0.4,0.6h0c-0.5,0.8-1,1.7-1.6,2.6c-1,1.7-2,3.1-3,4.2c0,0,0,0,0,0   c0,0,0,0,0,0c-1-1.2-2-2.6-3-4.2c-0.6-1-1.1-1.8-1.6-2.6l-17-28.4c-2.3-3.8-5.7-3.9-9.5-3.9h-0.4h-5.6l22,36.9   c0.2,0.4,0.4,0.7,0.7,1.2l0.1,0.1c0.6,0.9,2,3,2,3c0,0,0,0.1,0.1,0.1c0,0,0,0,0,0c0,0,0,0,0,0.1c0.1,0.1,0.2,0.2,0.3,0.4   c0,0,0,0.1,0.1,0.1c0.1,0.2,0.3,0.4,0.5,0.6c0.2,0.2,0.3,0.4,0.5,0.6c1.7,1.9,3.9,3.6,6.7,4.4c1.2,0.3,2.5,0.5,4,0.6   c1.5,0,2.9-0.2,4.1-0.6c3.3-1,5.7-3.1,7.6-5.4v0c0,0,0,0,0,0c0,0,0,0,0,0v0c0,0,0,0,0,0l0,0l0,0c0,0,0,0,0,0c0,0,0,0,0,0   c0.1,0.1,0.2,0.2,0.3,0.4c0,0,0,0,0,0c0.2,0.2,0.3,0.4,0.5,0.6c1.7,1.9,3.9,3.6,6.7,4.4c1.2,0.3,2.5,0.5,4,0.6   c1.5,0,2.9-0.2,4.1-0.6c3.6-1.1,6.3-3.6,8.1-6.1c0,0,0,0,0,0c0.9-1.1,1.6-2.2,2.1-3.2h0l0.1-0.1c0.3-0.4,0.5-0.8,0.7-1.2l31.5-51.6   H1806.8z M1754,251.8C1753.8,251.8,1753.8,251.8,1754,251.8L1754,251.8L1754,251.8L1754,251.8z"
   class="st20" />
</g>
</svg>