<svg width="47" height="39" viewBox="0 0 47 39" fill="none" xmlns="http://www.w3.org/2000/svg">
<path d="M36.1231 3.5C38.8015 3.49963 41.3727 4.5519 43.2823 6.4299C45.192 8.30789 46.2871 10.8612 46.3315 13.5392C46.594 16.0621 46.556 19.7838 44.8498 24.08C43.1056 28.4725 39.7048 33.2617 33.4981 37.9167C33.1917 38.1465 32.843 38.3137 32.472 38.4087C32.1009 38.5038 31.7148 38.5249 31.3356 38.4707C30.5699 38.3613 29.8789 37.9522 29.4148 37.3333C28.9507 36.7145 28.7514 35.9366 28.8608 35.1709C28.9702 34.4051 29.3793 33.7141 29.9981 33.25C34.5598 29.8288 37.1731 26.5038 38.6694 23.5958C37.2666 23.9561 35.8032 24.0137 34.3764 23.7649C32.9496 23.5161 31.5921 22.9665 30.394 22.1526C29.196 21.3388 28.1848 20.2794 27.4277 19.0447C26.6706 17.81 26.1849 16.4284 26.0028 14.9915C25.8208 13.5547 25.9466 12.0956 26.3718 10.7111C26.797 9.32658 27.512 8.04843 28.4692 6.96151C29.4264 5.8746 30.604 5.00381 31.9236 4.407C33.2433 3.81018 34.6748 3.50101 36.1231 3.5ZM9.87312 3.5C12.5515 3.49963 15.1227 4.5519 17.0323 6.4299C18.942 8.30789 20.0371 10.8612 20.0815 13.5392C20.344 16.0621 20.306 19.7838 18.5998 24.08C16.8585 28.4725 13.4548 33.2617 7.24812 37.9167C6.94171 38.1465 6.59302 38.3137 6.22199 38.4087C5.85095 38.5038 5.46482 38.5249 5.08565 38.4707C4.31987 38.3613 3.62892 37.9522 3.16479 37.3333C2.70066 36.7145 2.50138 35.9366 2.61077 35.1709C2.72017 34.4051 3.12929 33.7141 3.74813 33.25C8.30979 29.8288 10.9231 26.5038 12.4194 23.5958C11.0166 23.9561 9.55317 24.0137 8.12638 23.7649C6.69959 23.5161 5.34208 22.9665 4.14403 22.1526C2.94598 21.3388 1.93482 20.2794 1.17772 19.0447C0.420612 17.81 -0.0650993 16.4284 -0.247154 14.9915C-0.429209 13.5547 -0.303439 12.0956 0.121802 10.7111C0.547043 9.32658 1.26202 8.04843 2.21924 6.96151C3.17645 5.8746 4.35399 5.00381 5.67363 4.407C6.99327 3.81018 8.4248 3.50101 9.87312 3.5Z" fill="#163C6D"/>
</svg>
