<svg width="112" height="19" viewBox="0 0 112 19" fill="none" xmlns="http://www.w3.org/2000/svg">
<path d="M3.825 19L5.45 11.975L0 7.25L7.2 6.625L10 0L12.8 6.625L20 7.25L14.55 11.975L16.175 19L10 15.275L3.825 19Z" fill="#FBC23B"/>
<path d="M26.825 19L28.45 11.975L23 7.25L30.2 6.625L33 0L35.8 6.625L43 7.25L37.55 11.975L39.175 19L33 15.275L26.825 19Z" fill="#FBC23B"/>
<path d="M49.825 19L51.45 11.975L46 7.25L53.2 6.625L56 0L58.8 6.625L66 7.25L60.55 11.975L62.175 19L56 15.275L49.825 19Z" fill="#FBC23B"/>
<path d="M72.825 19L74.45 11.975L69 7.25L76.2 6.625L79 0L81.8 6.625L89 7.25L83.55 11.975L85.175 19L79 15.275L72.825 19Z" fill="#FBC23B"/>
<path d="M95.825 19L97.45 11.975L92 7.25L99.2 6.625L102 0L104.8 6.625L112 7.25L106.55 11.975L108.175 19L102 15.275L95.825 19Z" fill="#FBC23B"/>
</svg>
