<svg width="522" height="319" viewBox="0 0 522 319" fill="none" xmlns="http://www.w3.org/2000/svg">
<g opacity="0.2">
<path d="M126.191 285.315C114.112 269.211 103.335 252.174 93.964 234.363C63.5392 183.995 33.3717 133.511 3.46168 82.9098C2.05746 80.5269 -0.961494 78.0739 0.302308 75.4106C1.56611 72.7474 5.49784 73.9388 8.09565 74.0089C20.0316 74.0089 31.9675 74.7097 43.9034 75.1302C50.7733 75.0974 57.5259 76.9079 63.4547 80.3725C69.3835 83.837 74.2707 88.8283 77.6049 94.8241C108.685 146.827 139.882 198.737 171.196 250.553C175.83 258.262 181.307 265.621 186.362 273.12C185.464 277.28 183.361 281.085 180.316 284.063C177.27 287.04 173.416 289.06 169.23 289.87C162.286 292.945 154.654 294.142 147.1 293.342C139.546 292.543 132.335 289.774 126.191 285.315Z" fill="white"/>
<path d="M247.172 179.207C280.031 126.293 313.03 73.4485 345.468 20.3942C349.059 14.0627 354.308 8.82607 360.653 5.2456C366.998 1.66514 374.2 -0.124072 381.486 0.0696575C393.141 0.0696575 404.867 0.0696575 416.592 0.0696575C424.315 -0.280767 423.613 2.17212 420.454 7.42849C391.948 53.6845 363.559 100.011 335.287 146.407C317.313 175.702 299.316 205.021 281.295 234.363C278.486 236.396 277.012 234.363 275.959 232.331C266.48 216.352 256.581 200.582 247.523 184.323C247.005 183.582 246.698 182.715 246.637 181.813C246.575 180.912 246.76 180.011 247.172 179.207Z" fill="white"/>
<path d="M247.159 179.207C257.363 196.541 267.521 213.852 277.631 231.139C278.474 232.681 279.386 234.013 281.352 234.083C281.352 235.204 281.352 236.326 281.352 237.447C280.018 239.55 278.754 241.722 277.28 243.755C274.963 247.539 272.857 251.464 270.259 255.249C268.298 258.89 266.141 262.422 263.799 265.831C260.289 271.298 256.778 276.905 253.268 282.301C251.745 284.67 249.543 286.526 246.949 287.628C246.136 287.751 245.306 287.709 244.51 287.504C243.714 287.299 242.967 286.936 242.315 286.436C230.688 270.956 220.355 254.547 211.422 237.377V233.662C211.59 231.799 212.382 230.047 213.668 228.686C216.196 225.252 218.022 221.678 220.69 217.963C223.358 214.249 225.885 208.572 228.904 203.946C231.561 200.169 233.909 196.185 235.926 192.032C239.647 188.037 239.998 181.449 245.685 178.856L247.159 179.207Z" fill="white"/>
<path d="M247.496 286.927C248.555 284.69 250.301 282.849 252.48 281.671C254.925 284.823 258.499 286.908 262.451 287.488L264.416 288.609C266.284 289.484 268.321 289.938 270.384 289.938C272.447 289.938 274.485 289.484 276.352 288.609C276.952 288.162 277.585 287.764 278.248 287.418C280.635 286.436 283.303 286.156 285.62 285.035C287.683 284.209 289.678 283.225 291.588 282.091C293.907 280.779 296.013 279.125 297.837 277.185C299.6 275.09 301.603 273.208 303.805 271.578C307.316 272.349 308.299 268.845 310.826 267.654C314.337 270.527 313.705 275.363 316.022 278.797C317.79 281.667 320.492 283.844 323.675 284.965C326.933 286.733 330.569 287.694 334.277 287.768H346.002C350.751 287.361 355.451 286.517 360.044 285.245C362.501 284.614 364.889 282.932 367.416 285.245C361.134 295.272 352.474 303.599 342.202 309.49C331.93 315.381 320.361 318.655 308.52 319.022C296.678 319.39 284.928 316.839 274.309 311.595C263.69 306.352 254.529 298.578 247.636 288.96C247.497 288.752 247.423 288.508 247.423 288.259C247.423 288.009 247.497 287.765 247.636 287.558C247.145 287.348 247.355 286.927 247.496 286.927Z" fill="white"/>
<path d="M247.528 286.927V288.89C240.957 296.29 233.48 302.836 225.272 308.373C189.394 328.487 150.286 319.376 126.414 285.105C136.344 289.204 147.069 291.024 157.798 290.431C163.583 289.873 169.164 288.005 174.116 284.969C179.068 281.933 183.261 277.808 186.375 272.91H187.709C188.562 272.932 189.391 273.199 190.096 273.681C205.542 290.151 224.359 290.221 244.228 284.895L247.528 286.927Z" fill="white"/>
<path d="M427.118 80.4574C433.265 69.2155 440.015 58.3131 447.339 47.7978C450.92 47.3773 451.411 50.3208 452.394 52.5635C453.285 54.9842 453.69 57.5561 453.588 60.1328C453.096 88.5172 454.29 116.971 452.886 145.356C446.243 157.78 438.809 169.766 430.629 181.239C425.925 180.819 426.908 176.894 426.416 174.231C424.802 159.66 424.59 144.969 425.784 130.358C426.346 115.36 425.784 100.432 426.346 85.4333C426.416 83.6812 425.925 81.9292 427.118 80.4574Z" fill="white"/>
<path d="M195.922 206.96C191.99 199.952 188.058 193.294 184.056 186.496C180.616 176.684 182.722 166.521 182.02 156.499C180.897 139.328 181.529 122.227 181.529 105.057C181.529 99.9405 181.529 94.8945 182.161 89.8484C182.161 87.3954 181.458 83.6808 186.022 83.821C192.284 88.5355 197.04 94.9631 199.713 102.324C201.748 118.593 202.336 135.01 201.469 151.383C200.603 165.387 200.603 179.43 201.469 193.434C201.941 197.079 201.63 200.782 200.556 204.297C199.994 206.68 199.292 208.782 195.922 206.96Z" fill="white"/>
<path d="M244.004 285.385C242.46 289.45 238.458 289.029 235.439 289.59C216.552 292.884 199.561 290.361 187.484 273.401C196.488 262.11 204.632 250.162 211.848 237.657C220.694 245.367 224.205 256.65 230.735 265.691C235.298 272.349 239.651 278.937 244.004 285.385Z" fill="white"/>
<path d="M401.289 228.967C399.003 235.246 395.602 241.063 391.249 246.137C389.774 248.1 388.16 249.081 386.966 246.137C385.787 243.56 385.142 240.771 385.07 237.938C385.772 210.464 385.07 183.061 385.07 155.588C385.26 151.898 386.091 148.27 387.528 144.865C390.255 138.859 393.748 133.229 397.919 128.115C400.565 131.516 401.752 135.826 401.219 140.099C401.219 156.499 401.78 172.829 401.219 189.158C402.085 202.413 402.108 215.709 401.289 228.967Z" fill="white"/>
<path d="M427.106 80.4573C428.919 95.0309 429.436 109.736 428.651 124.4C427.774 131.991 427.774 139.658 428.651 147.248C428.761 152.642 428.409 158.034 427.598 163.368C427.341 169.464 428.345 175.548 430.547 181.239C427.62 187.821 423.995 194.071 419.734 199.882C413.626 197.919 414.539 192.453 413.696 187.897C413.403 180.246 413.708 172.584 414.609 164.98C414.609 146.547 415.381 128.045 413.696 109.613C413.323 106.501 413.734 103.345 414.89 100.432L427.106 80.4573Z" fill="white"/>
<path d="M367.088 285.385L360.067 287.138C355.152 287.138 355.574 283.003 355.223 280.129C354.169 269.757 355.223 259.104 355.223 248.871C355.223 234.854 355.222 221.258 354.801 207.451C354.472 203.244 355.046 199.014 356.486 195.046C359.667 188.214 363.624 181.771 368.282 175.843C371.162 186.475 372.206 197.52 371.371 208.502C371.371 224.552 369.194 240.671 370.529 256.861C370.856 264.787 370.621 272.727 369.826 280.62L367.088 285.385Z" fill="white"/>
<path d="M452.875 145.355C449.364 140.59 451.049 135.193 451.049 129.937C451.049 106.248 451.049 82.5126 451.049 58.7304C451.199 56.7518 450.947 54.7633 450.308 52.8844C449.668 51.0055 448.655 49.2751 447.328 47.7972L457.649 30.8366C461.09 29.0845 462.283 31.3273 463.126 33.9905C463.771 36.4826 463.961 39.0703 463.687 41.6297C462.353 68.262 463.687 94.9643 463.687 121.597C463.687 123.909 463.196 126.152 463.266 128.605C460.484 134.582 456.995 140.205 452.875 145.355Z" fill="white"/>
<path d="M387.562 144.795C388.124 173.6 386.579 202.475 387.913 231.28C388.773 236.208 388.962 241.229 388.475 246.208C388.475 247.189 390.23 246.208 391.213 246.208C388.435 252.274 384.947 257.991 380.822 263.238C374.854 265.131 375.767 260.365 375.837 257.491C375.837 240.32 374.994 223.08 375.486 206.119C375.907 191.191 371.554 175.702 377.592 161.055C380.242 155.251 383.59 149.791 387.562 144.795Z" fill="white"/>
<path d="M377.634 160.774C375.176 174.791 380.793 188.808 376.651 203.246C375.387 207.591 379.389 213.268 378.757 218.034C377.002 231.14 380.232 244.245 377.704 257.281C377.212 259.804 377.212 262.538 380.863 262.958C377.817 268.945 374.27 274.666 370.262 280.059C367.242 280.059 367.874 277.816 368.085 275.784C368.869 266.306 368.704 256.774 367.593 247.329C367.183 237.501 367.582 227.656 368.787 217.894C370.121 203.526 367.032 189.439 368.787 175.282C371.024 170.048 374.003 165.162 377.634 160.774Z" fill="white"/>
<path d="M356.887 194.695C357.449 215.3 358.502 235.975 358.292 256.65C358.292 264.289 357.8 271.999 357.66 279.708C357.565 281.07 357.796 282.434 358.333 283.689C358.871 284.944 359.698 286.054 360.749 286.927C356.439 288.891 351.791 290.01 347.058 290.221C346.073 289.016 345.341 287.626 344.907 286.133C344.473 284.64 344.345 283.074 344.53 281.53C344.53 260.505 343.688 239.479 344.039 218.454C343.931 216.739 344.4 215.037 345.373 213.618C348.557 206.936 352.415 200.596 356.887 194.695Z" fill="white"/>
<path d="M401.284 228.968C397.352 221.468 400.863 213.479 399.95 205.699C398.745 190.706 398.627 175.645 399.599 160.635C399.599 149.772 398.546 138.908 397.984 128.045C400.713 122.033 404.18 116.383 408.305 111.225C412.869 119.074 411.395 127.835 411.254 136.175C410.903 158.602 410.482 181.1 411.254 203.527C410.869 206.88 410.869 210.266 411.254 213.619C408.57 219.121 405.222 224.276 401.284 228.968Z" fill="white"/>
<path d="M466.086 17.2408C468.169 12.7005 471.803 9.04841 476.337 6.93835C480.971 6.93835 480.76 10.793 480.76 13.5964C480.76 42.1443 480.76 70.6456 480.76 99.1C480.646 99.6532 480.378 100.163 479.988 100.572C477.513 106.757 474.025 112.489 469.667 117.532C466.367 116.551 466.437 113.748 466.577 111.295C467.28 101.763 466.577 92.3016 467.982 82.7C468.776 70.0338 468.447 57.3224 466.999 44.7141C466.437 35.533 470.86 26.2117 466.086 17.2408Z" fill="white"/>
<path d="M466.089 17.2405C468.335 18.9087 469.904 21.328 470.51 24.0562C471.116 26.7844 470.718 29.6393 469.389 32.0986C468.304 35.2363 468.158 38.621 468.968 41.8403C470.412 55.034 470.881 68.316 470.372 81.5785C470.32 92.0128 469.569 102.432 468.125 112.766C468.059 114.465 468.552 116.139 469.529 117.532C468.126 121.533 465.956 125.222 463.14 128.395C459.068 124.751 461.034 119.705 460.823 115.57C460.191 103.375 460.823 91.11 460.823 78.9153C460.823 70.2948 459.629 61.7444 460.332 53.0539C461.188 47.8204 461.448 42.5066 461.104 37.2147C460.683 34.4113 461.104 31.3275 457.312 30.8369C459.651 25.9528 462.6 21.3843 466.089 17.2405Z" fill="white"/>
<path d="M411.304 213.618C406.178 209.413 408.636 203.386 408.636 198.55C408.636 177.104 407.583 155.588 409.057 134.002C409.548 126.643 408.495 118.864 408.285 111.224C409.818 107.244 412.079 103.585 414.955 100.431C416.266 108.661 416.947 116.978 416.991 125.311C416.991 138.768 416.991 152.294 416.991 165.82C416.193 172.659 415.818 179.541 415.867 186.425C415.802 191.192 417.145 195.873 419.729 199.882C416.921 204.437 414.112 209.063 411.304 213.618Z" fill="white"/>
<path d="M345.045 213.689C347.082 239.27 345.888 264.851 346.731 290.432H333.039C332.405 289.864 331.91 289.157 331.593 288.367C331.277 287.577 331.147 286.725 331.214 285.876C333.742 272.42 330.442 258.964 331.214 245.507C331.214 241.513 332.829 237.868 332.899 233.943C336.331 226.842 340.396 220.063 345.045 213.689Z" fill="white"/>
<path d="M480.12 100.572C478.09 92.3695 477.59 83.8642 478.645 75.4813C478.645 54.9464 478.997 34.3415 479.137 13.8066C479.343 12.5204 479.219 11.2031 478.777 9.97751C478.335 8.75193 477.59 7.65807 476.609 6.79815C478.408 4.77861 480.93 3.54525 483.63 3.36395C488.475 3.71438 488.475 7.63922 488.545 10.793C489.786 31.3984 489.973 52.0535 489.107 72.6779C489.708 78.2945 489.135 83.9745 487.422 89.3581C484.473 93.0026 484.122 97.6983 480.12 100.572Z" fill="white"/>
<path d="M186.006 83.6812C182.285 88.7274 184.391 94.6145 184.11 100.081C182.883 115.539 182.672 131.061 183.478 146.547C184.742 159.934 182.355 173.11 184.04 186.356C181.077 182.862 178.705 178.908 177.019 174.652C174.96 169.36 173.958 163.717 174.07 158.041C174.07 137.016 175.334 115.99 173.719 95.4555C173.917 89.908 174.504 84.3813 175.474 78.9155C177.496 78.6975 179.54 79.0246 181.392 79.8628C183.244 80.701 184.837 82.0196 186.006 83.6812Z" fill="white"/>
<path d="M487.135 89.498C487.135 74.3597 487.135 59.2215 487.135 44.0832C487.135 32.7995 485.591 21.5859 486.504 10.2321C486.675 8.90813 486.492 7.56243 485.974 6.33157C485.457 5.10072 484.622 4.0285 483.555 3.22365C484.427 2.45869 485.46 1.89802 486.578 1.58275C487.695 1.26748 488.869 1.2055 490.014 1.40138C495.35 -0.140489 497.035 3.22367 497.035 7.28859C495.701 19.203 498.018 31.0474 497.035 43.0319C496.193 53.6848 497.808 64.5478 496.052 75.2708C493.713 80.3803 490.715 85.1631 487.135 89.498Z" fill="white"/>
<path d="M221.9 219.015C220.403 223.28 218.009 227.175 214.879 230.439C213.763 228.967 212.973 227.274 212.562 225.474C212.15 223.674 212.126 221.807 212.492 219.997C212.492 191.963 212.492 164.139 212.492 136.525C212.247 134.981 212.361 133.4 212.823 131.906C213.286 130.411 214.085 129.043 215.16 127.905C218.741 130.849 219.513 135.404 221.83 139.048C226.276 165.517 226.3 192.539 221.9 219.015Z" fill="white"/>
<path d="M206.297 113.117C208.124 114.775 209.398 116.952 209.947 119.355C212.809 127.122 213.795 135.454 212.826 143.674C211.913 169.746 212.826 195.747 212.826 221.819C212.826 224.762 213.809 228.827 208.473 227.355L203.348 218.735C202.095 206.606 201.649 194.408 202.014 182.221C202.014 163.228 202.014 144.235 202.014 125.172C202.224 120.826 201.171 115.85 206.297 113.117Z" fill="white"/>
<path d="M206.306 113.117C204.788 116.175 204.226 119.618 204.691 122.999C204.691 141.571 205.745 160.214 204.691 178.716C203.638 192.102 207.64 205.489 203.568 218.735L196.547 206.96C201.462 205.769 200.338 201.284 199.987 198.69C196.477 175.562 202.094 152.364 198.864 129.096C198.485 120.145 198.979 111.179 200.338 102.324C202.982 105.52 205.006 109.18 206.306 113.117Z" fill="white"/>
<path d="M495.694 75.5515C493.525 64.3801 493.005 52.9522 494.15 41.6305C493.448 29.6328 493.448 17.6045 494.15 5.60682C494.711 2.31283 491.692 2.45297 489.586 1.96238C494.053 0.237644 498.893 -0.293828 503.628 0.420502C505.186 13.6095 505.444 26.9193 504.401 40.1587C505.373 47.4393 505.111 54.8311 503.628 62.0252C501.702 66.9175 499.026 71.4808 495.694 75.5515Z" fill="white"/>
<path d="M163.614 152.224C159.572 146.897 156.133 141.138 153.363 135.053C151.256 115.129 151.68 95.0187 154.627 75.2008C155.532 74.7504 156.53 74.5157 157.541 74.5157C158.552 74.5157 159.55 74.7504 160.455 75.2008L163.614 75.6213C164.664 76.9559 165.435 78.487 165.881 80.1242C166.327 81.7614 166.44 83.4713 166.212 85.1527C166.212 105.758 166.212 126.363 165.65 146.968C165.694 147.937 165.535 148.904 165.185 149.809C164.834 150.714 164.3 151.536 163.614 152.224Z" fill="white"/>
<path d="M163.594 152.224V75.481C166 74.9367 168.524 75.3651 170.615 76.6725C172.581 79.4968 173.5 82.9169 173.213 86.3443C173.213 108.771 173.213 131.129 173.213 153.556C173.517 155.386 173.437 157.259 172.978 159.057C172.519 160.855 171.69 162.537 170.545 163.998C167.448 160.587 165.083 156.581 163.594 152.224Z" fill="white"/>
<path d="M221.875 219.015C221.875 192.383 221.875 165.727 221.875 139.048C225.49 143.446 228.424 148.36 230.581 153.626C234.794 170.539 234.794 188.225 230.581 205.138C228.557 210.258 225.605 214.962 221.875 219.015Z" fill="white"/>
<path d="M170.484 163.998V76.6726C172.801 76.1119 173.784 78.3546 175.54 79.0555C180.735 85.3631 175.54 92.3716 176.171 99.0297C177.646 124.19 176.944 149.491 177.084 174.791C174.21 171.651 171.969 167.986 170.484 163.998Z" fill="white"/>
<path d="M332.688 234.014C336.76 236.537 332.688 239.55 333.179 242.284C333.671 251.114 333.741 259.945 334.724 268.705C335.636 276.205 332.758 283.213 333.109 290.502C329.418 290.381 325.839 289.214 322.788 287.138C321.763 285.977 321.027 284.592 320.636 283.095C320.246 281.597 320.213 280.029 320.541 278.517C322.156 269.967 318.154 261.347 321.103 252.866C324.271 246.183 328.155 239.862 332.688 234.014Z" fill="white"/>
<path d="M208.336 227.355C211.566 226.794 211.355 224.902 210.793 222.309C209.048 214.541 209.168 206.472 211.144 198.76C212.338 194.415 210.021 190.35 209.951 186.215C209.951 172.198 209.951 158.531 210.653 144.725C211.004 136.314 209.529 127.834 209.951 119.354C212.383 121.704 214.151 124.654 215.076 127.904V230.439C214.093 231.63 213.04 232.751 211.987 233.943L208.336 227.355Z" fill="white"/>
<path d="M286.756 286.928C284.351 288.577 281.449 289.344 278.542 289.1C274.54 289.1 274.189 285.666 274.189 283.073C274.189 269.547 271.872 255.95 276.506 242.704C277.559 240.391 277.91 237.308 281.631 237.518L286.967 247.54C290.796 260.402 290.723 274.107 286.756 286.928Z" fill="white"/>
<path d="M155.106 75.691C155.106 93.002 155.106 110.383 154.615 127.694C154.399 130.178 153.976 132.639 153.351 135.053C149.518 130.719 146.541 125.702 144.574 120.265C143.31 107.369 144.574 94.4739 143.521 81.5783C143.365 80.2485 143.562 78.901 144.091 77.6709C144.621 76.4408 145.466 75.3715 146.54 74.5698C149.419 74.6399 152.438 73.5184 155.106 75.691Z" fill="white"/>
<path d="M517.756 39.1075C515.734 44.2081 512.888 48.9432 509.331 53.1245C508.416 52.2163 507.714 51.1162 507.277 49.904C506.84 48.6919 506.678 47.3981 506.803 46.116C506.242 33.0802 507.435 20.0443 506.803 7.00849C506.664 4.4401 507.547 1.92072 509.261 0H517.827C522.085 12.6933 522.06 26.4295 517.756 39.1075Z" fill="white"/>
<path d="M509.255 0.14032V53.3348C508.175 56.491 506.399 59.3648 504.059 61.7449C501.918 41.2656 501.918 20.6196 504.059 0.14032H509.255Z" fill="white"/>
<path d="M146.54 75.6216C143.732 85.5737 147.242 95.4557 146.54 105.408C146.499 110.427 145.815 115.42 144.504 120.266C141.599 117.095 139.356 113.378 137.904 109.332C134.131 98.4236 133.886 86.6072 137.202 75.5515C138.626 74.7371 140.24 74.3145 141.881 74.3268C143.521 74.3391 145.129 74.7859 146.54 75.6216Z" fill="white"/>
<path d="M230.383 205.138C230.383 187.967 230.383 170.796 230.383 153.626C233.43 157.032 235.812 160.978 237.404 165.26C240.985 174.263 240.985 184.291 237.404 193.294C236.175 197.801 233.749 201.893 230.383 205.138Z" fill="white"/>
<path d="M321.04 252.866C323.074 264.17 323.64 275.689 322.725 287.137C312.965 284.404 311.842 276.274 310.719 268.074L321.04 252.866Z" fill="white"/>
<path d="M138.067 75.6211C138.067 86.8347 138.067 98.1184 138.067 109.332C134.075 103.995 130.64 98.2653 127.816 92.2312C126.856 90.5006 126.259 88.593 126.061 86.6245C123.744 75.5511 126.552 73.028 138.067 75.6211Z" fill="white"/>
<path d="M286.766 286.927V247.539C289.175 249.908 290.939 252.851 291.891 256.09C293.824 260.511 294.822 265.283 294.822 270.107C294.822 274.931 293.824 279.703 291.891 284.124C290.576 285.644 288.756 286.639 286.766 286.927Z" fill="white"/>
<path d="M138.055 75.6216C129.63 73.7994 126.19 77.1635 127.594 85.6437C127.769 87.8362 127.769 90.0392 127.594 92.2317C124.294 87.1155 120.924 81.9292 116.781 75.3412C131.23 73.4522 145.864 73.4522 160.312 75.3412L154.976 75.972H137.915L138.055 75.6216Z" fill="white"/>
<path d="M292.039 283.774C292.039 274.522 292.039 265.271 292.039 255.74L299.06 265.762C300.193 267.673 300.761 269.865 300.699 272.085C300.637 274.305 299.947 276.462 298.709 278.307C298.146 279.704 297.24 280.937 296.075 281.892C294.909 282.847 293.521 283.494 292.039 283.774Z" fill="white"/>
<path d="M237.266 193.294V165.26C240.701 169.554 243.579 174.263 245.831 179.277C242.883 183.762 242.11 189.79 237.266 193.294Z" fill="white"/>
<path d="M298.758 278.587C298.758 274.382 298.758 270.247 299.109 266.042C300.653 268.004 302.268 269.967 303.813 271.999C303.648 273.452 303.091 274.832 302.2 275.993C301.31 277.153 300.12 278.05 298.758 278.587Z" fill="white"/>
<path d="M276.509 242.634C276.509 255.249 276.509 267.864 276.509 280.48C276.509 283.423 275.456 286.717 278.475 289.03C278.442 289.543 278.442 290.058 278.475 290.572C276.998 291.251 275.379 291.568 273.755 291.495C272.13 291.422 270.547 290.961 269.137 290.151C265.951 278.398 266.146 265.986 269.699 254.338C271.254 250.064 273.56 246.1 276.509 242.634Z" fill="white"/>
<path d="M269.486 254.338C269.486 266.322 269.486 278.307 269.486 290.291C268.49 291.087 267.252 291.521 265.976 291.521C264.699 291.521 263.461 291.087 262.465 290.291C262.535 289.827 262.535 289.354 262.465 288.889C260.648 285.18 259.703 281.104 259.703 276.975C259.703 272.845 260.648 268.77 262.465 265.061C265.484 261.697 266.046 257.141 269.486 254.338Z" fill="white"/>
<path d="M262.938 265.061V288.889C258.024 288.889 252.336 289.73 252.687 281.881C255.358 275.853 258.804 270.199 262.938 265.061Z" fill="white"/>
<path d="M262.828 290.291H269.849H278.345C276.014 291.731 273.327 292.493 270.587 292.493C267.846 292.493 265.159 291.731 262.828 290.291Z" fill="white"/>
</g>
</svg>
